# xmcd
#
# Track frame offsets:
#	150
#	14584
#	27989
#	45180
#	59838
#	75234
#	87046
#	100778
#	119824
#	130200
#	152233
#	166649
#	185590
#	197147
#
# Disc length: 2809 seconds
#
# Revision: 1
# Processed by: cddbd v1.5.2PL0 Copyright (c) Steve Scherf et al.
# Submitted via: audiograbber 1.83.01
#
DISCID=b10af70e
DTITLE=South Mountain - Just For You
DYEAR=1900
DGENRE=Country
TTITLE0=Hot Wired
TTITLE1=Another Chance At Love
TTITLE2=Hide And Go Cheat
TTITLE3=Pearl Street Breakdown - Stair Climbing
TTITLE4=Waltz Of The Wind
TTITLE5=Reach For The Rhythm
TTITLE6=Made In Japan
TTITLE7=Colder Than Winter
TTITLE8=Would You Mind
TTITLE9=Black Train
TTITLE10=Transylvania Jig
TTITLE11=Slow Me Down
TTITLE12=Near Mrs
TTITLE13=Country Boy
EXTD=
EXTT0=
EXTT1=
EXTT2=
EXTT3=
EXTT4=
EXTT5=
EXTT6=
EXTT7=
EXTT8=
EXTT9=
EXTT10=
EXTT11=
EXTT12=
EXTT13=
PLAYORDER=
